<?xml version="1.0" encoding="utf-8"?>
<!-- Generator: Adobe Illustrator 25.2.1, SVG Export Plug-In . SVG Version: 6.00 Build 0)  -->
<svg version="1.1" id="Layer_1" xmlns="http://www.w3.org/2000/svg" xmlns:xlink="http://www.w3.org/1999/xlink" x="0px" y="0px"
	 viewBox="0 0 223.6 41.3" style="enable-background:new 0 0 223.6 41.3;" xml:space="preserve">
<style type="text/css">
	.st0{fill:#BC8451;}
	.st1{fill:#E2B458;}
</style>
<g>
	<path class="st0" d="M19,23.5c-0.2,0-0.5,0.1-0.8,0.1c-0.3,0.1-0.7,0.1-1.2,0.3c0,0.3,0,0.5-0.1,0.8c0,0.3,0,0.6,0,0.9
		c0,0.3,0,0.7,0,1.2c0,0.5,0,1,0.1,1.7c0.1,1.3,0.1,2.2,0.1,2.8c0,2.2-0.3,4-1,5.3c-0.2,0.3-0.4,0.4-0.7,0.4c-0.3,0-0.6-0.1-1-0.4
		c-0.3-0.3-0.6-0.6-0.7-0.9c-0.3-0.7-0.4-1.7-0.4-2.8c0-0.2,0-0.6,0.1-1.2c0-0.6,0.1-1.5,0.2-2.6c0-0.3,0-0.7,0.1-1
		c0-0.3,0-0.6,0-0.9c0-0.8-0.1-1.5-0.2-1.9c-0.1-0.4-0.3-0.6-0.8-0.8c-0.6-0.3-1-0.5-1.1-0.6c0,0,0-0.1,0-0.3c0-0.1,0-0.3,0-0.5
		c0-0.2,0.1-0.5,0.2-0.7c0.3,0,0.5-0.1,0.7-0.3c0.2-0.2,0.4-0.3,0.6-0.3c0.2,0,0.3,0,0.3,0c0.1-0.6,0.2-1.2,0.3-2
		c0.1-0.7,0.1-1.5,0.1-2.3c0-0.3,0-0.8-0.1-1.7c-0.1-0.9-0.1-2-0.2-3.5c0-0.1,0-0.3,0-0.4c0-0.1,0-0.3,0-0.4c-0.5-0.2-1-0.5-1.4-0.9
		c-0.5-0.5-0.7-0.9-0.7-1.4c0-0.6,0.5-1,1.4-1.2c0.6-0.1,1.5-0.3,2.7-0.6C16.6,7,18,6.6,19.7,6c3-1,5.4-1.5,7.2-1.5
		c0.5,0,0.9,0.1,1.2,0.4c0.3,0.2,0.5,0.6,0.5,1c0,0.5-0.2,1-0.5,1.4c-0.3,0.4-0.7,0.7-1.3,0.8h-0.2C26.5,8,26.3,8,26,7.8
		c-0.3-0.1-0.5-0.2-0.8-0.2C24.6,7.7,24,7.8,23.3,8c-0.7,0.2-1.4,0.5-2.3,0.8c-1.1,0.4-2,0.8-2.6,1c-0.7,0.3-1.2,0.4-1.5,0.5
		c-0.1,0.8-0.1,1.7-0.1,2.5s0,1.7,0,2.5c0,0.8,0,1.7,0,2.5c0,0.9,0.1,1.7,0.1,2.5c0.1,0,0.2,0,0.3,0.1c0.1,0,0.2,0,0.3,0
		c0.5,0,1.4-0.2,2.8-0.6c0.5-0.2,1-0.3,1.4-0.4c0.4-0.1,0.8-0.1,1.1-0.1c0.1,0,0.1,0,0.2,0c0.1,0,0.1,0,0.2,0
		c0.5,0.1,0.8,0.3,0.8,0.7c-0.2,1-0.8,1.8-1.9,2.3L19,23.5z"/>
	<path class="st0" d="M26,19.6c0-0.7,0-1.4,0.1-2c0.1-0.6,0.2-1.3,0.4-1.9c0-0.1,0.1-0.1,0.2-0.2c0.1-0.1,0.3-0.1,0.4-0.2
		c0.1,0,0.2-0.1,0.3-0.1c0.1,0,0.2-0.1,0.3-0.1c0.4,0.1,0.8,0.2,1.2,0.5c0.4,0.3,0.6,0.6,0.6,1.1c0,0.4,0,0.8-0.1,1.1
		c-0.1,0.3-0.1,0.7-0.1,1.1c0,0.7,0,1.3-0.1,1.7c-0.1,0.4-0.1,0.8-0.1,1.2c0,1.2,0,2.4,0.1,3.4c0.1,1,0.1,1.8,0.2,2.4
		c0.4-0.1,0.9-0.4,1.4-1.1c0.5-0.7,1-1.5,1.5-2.4c0.5-0.9,0.9-1.9,1.4-2.9c0.4-1,0.7-1.9,1-2.7c0.1-0.3,0.1-0.7,0.1-1
		c0-0.3,0-0.6,0.1-0.9c0.1-0.3,0.3-0.5,0.5-0.7c0.3-0.2,0.7-0.3,1.4-0.3c0,0,0.1,0,0.1,0c0,0,0,0,0.1,0c0.2,0,0.5,0.1,0.7,0.3
		c0.3,0.2,0.5,0.4,0.6,0.6c0,1.5,0,2.7-0.1,3.6C38,21.1,38,21.8,38,22.5c0,1.2,0.1,2.3,0.3,3.2c0.2,0.9,0.4,1.6,0.8,2.1
		c0.2,0.2,0.3,0.4,0.4,0.5c0.1,0.2,0.2,0.4,0.3,0.6c-0.1,0.3-0.1,0.5-0.3,0.6c-0.1,0.1-0.3,0.2-0.4,0.3c-0.2,0.1-0.3,0.1-0.5,0.1
		c-0.2,0-0.4,0.1-0.5,0.1c-0.6-0.1-1-0.4-1.4-0.7c-0.3-0.3-0.6-0.7-0.8-1.2c-0.2-0.5-0.4-1-0.5-1.6c-0.1-0.6-0.2-1.2-0.3-1.8
		L35,25.1c-0.2,0.4-0.5,1-0.8,1.7c-0.3,0.7-0.8,1.4-1.2,2.1c-0.5,0.7-1,1.3-1.6,1.8c-0.6,0.5-1.3,0.8-2,0.8c-0.7,0-1.3-0.1-1.8-0.4
		c-0.5-0.3-0.8-0.8-1-1.5c-0.2-0.7-0.4-1.5-0.5-2.6c-0.1-1.1-0.1-2.4-0.1-3.9C26,22.7,26,22.4,26,22c0-0.4,0-0.7,0-1.1V19.6z"/>
	<path class="st0" d="M42,29.9c0.1-0.1,0.1-0.4,0.1-0.7c0-0.3,0-0.8,0-1.3c0-0.5,0-1,0-1.6c0-0.6,0-1.1,0-1.6c0-0.5,0-0.9,0-1.2
		c0-0.3,0-0.5,0-0.6v-1.3c0-0.6,0-1.1-0.1-1.7c0-0.6-0.1-1.1-0.1-1.7V18c0-0.2-0.1-0.5-0.2-0.7c-0.1-0.2-0.2-0.5-0.2-0.7
		c0.1-0.3,0.2-0.6,0.4-0.8c0.2-0.2,0.5-0.3,1-0.3c0.4,0,0.8,0.1,1,0.3c0.3,0.2,0.5,0.4,0.6,0.6c0.1,0.2,0.2,0.5,0.3,0.8
		c0,0.3,0.1,0.6,0.1,0.9l0.1,2.1c0.3-0.2,0.5-0.5,0.8-0.9c0.3-0.4,0.6-0.8,0.9-1.3c0.3-0.5,0.6-0.9,1-1.4c0.3-0.4,0.7-0.8,1-1.1
		c0.2-0.1,0.5-0.2,0.8-0.2c0.6,0,1.1,0.1,1.5,0.3c0.4,0.2,0.7,0.6,0.9,1.1c-0.1,0.2-0.2,0.5-0.4,0.8s-0.5,0.6-0.8,0.9
		c-0.3,0.3-0.6,0.7-0.9,1c-0.3,0.3-0.6,0.7-0.8,1c-0.4,0.4-0.8,0.9-1.2,1.5c-0.4,0.6-0.7,1.2-1,1.8c-0.3,0.6-0.6,1.2-0.8,1.8
		c-0.2,0.6-0.3,1-0.3,1.3c0,0.2,0,0.5,0,0.9c0,0.4,0,0.7,0,0.9c0,0.3,0,0.6-0.1,0.9c-0.1,0.3-0.2,0.6-0.3,0.9
		c-0.2,0.3-0.4,0.5-0.6,0.7c-0.3,0.2-0.6,0.3-1,0.3c-0.5,0-0.9-0.1-1.2-0.4C42.1,30.8,42,30.4,42,30V29.9z"/>
	<path class="st1" d="M56.3,24c0,0.9,0.1,1.7,0.2,2.3c0.1,0.6,0.3,1,0.5,1.4c0.2,0.3,0.5,0.5,0.8,0.7c0.3,0.1,0.6,0.2,1,0.2
		c0.8,0,1.6-0.1,2.2-0.2c0.7-0.1,1.2-0.2,1.7-0.3v2.1c-0.5,0.1-1,0.2-1.8,0.3c-0.7,0.1-1.3,0.1-1.8,0.1c-0.8,0-1.6-0.1-2.2-0.3
		c-0.6-0.2-1.2-0.5-1.6-1c-0.4-0.5-0.8-1.3-1-2.2c-0.2-1-0.3-2.3-0.3-3.9c0-1.3,0.1-2.5,0.3-3.4c0.2-0.9,0.6-1.7,1-2.3
		c0.4-0.6,1-1,1.7-1.3c0.7-0.3,1.4-0.4,2.3-0.4c1.7,0,2.9,0.5,3.6,1.6c0.7,1.1,1.1,2.6,1.1,4.5V24H56.3z M59.1,17.7
		c-0.5,0-0.9,0.1-1.2,0.2c-0.3,0.1-0.6,0.4-0.8,0.7c-0.2,0.3-0.4,0.8-0.5,1.3c-0.1,0.6-0.2,1.2-0.2,2.1h5v-0.8c0-1.1-0.2-2-0.5-2.6
		C60.6,18.1,60,17.7,59.1,17.7z"/>
	<path class="st1" d="M73.6,30.4h-3.6l-3.9-14.5h2.6l3.1,12.4l3-12.4h2.5L73.6,30.4z"/>
	<path class="st1" d="M82.5,24c0,0.9,0.1,1.7,0.2,2.3c0.1,0.6,0.3,1,0.5,1.4c0.2,0.3,0.5,0.5,0.8,0.7c0.3,0.1,0.6,0.2,1,0.2
		c0.8,0,1.6-0.1,2.2-0.2c0.7-0.1,1.2-0.2,1.7-0.3v2.1c-0.5,0.1-1,0.2-1.8,0.3c-0.7,0.1-1.3,0.1-1.8,0.1c-0.8,0-1.6-0.1-2.2-0.3
		c-0.6-0.2-1.2-0.5-1.6-1c-0.4-0.5-0.8-1.3-1-2.2c-0.2-1-0.3-2.3-0.3-3.9c0-1.3,0.1-2.5,0.3-3.4c0.2-0.9,0.6-1.7,1-2.3
		c0.4-0.6,1-1,1.7-1.3c0.7-0.3,1.4-0.4,2.3-0.4c1.7,0,2.9,0.5,3.6,1.6c0.7,1.1,1.1,2.6,1.1,4.5V24H82.5z M85.2,17.7
		c-0.5,0-0.9,0.1-1.2,0.2c-0.3,0.1-0.6,0.4-0.8,0.7C83,19,82.8,19.4,82.7,20c-0.1,0.6-0.2,1.2-0.2,2.1h5.1v-0.8c0-1.1-0.2-2-0.5-2.6
		C86.7,18.1,86.1,17.7,85.2,17.7z"/>
	<path class="st1" d="M94,30.4V15.9h2l0.2,1.5c0.3-0.5,0.7-0.9,1.2-1.2c0.5-0.3,1.1-0.5,1.8-0.5c0.3,0,0.6,0,0.9,0
		c0.3,0,0.5,0.1,0.6,0.1v2.6c-0.3-0.1-0.5-0.1-0.9-0.2c-0.3-0.1-0.6-0.1-0.9-0.1c-0.5,0-0.9,0.1-1.2,0.3c-0.3,0.2-0.6,0.4-0.8,0.8
		c-0.2,0.3-0.3,0.7-0.4,1.1c-0.1,0.4-0.1,0.8-0.1,1.2v8.9H94z"/>
	<path class="st1" d="M119.3,30.4c-0.1,0-0.3,0-0.5-0.1c-0.2,0-0.4-0.1-0.6-0.2c-0.2-0.1-0.4-0.2-0.6-0.4c-0.2-0.2-0.3-0.4-0.5-0.7
		c-0.4,0.5-0.8,0.9-1.4,1.2c-0.6,0.3-1.4,0.4-2.4,0.4c-0.5,0-1-0.1-1.6-0.2c-0.5-0.1-1-0.3-1.4-0.6c-0.4-0.3-0.7-0.8-1-1.3
		c-0.3-0.6-0.4-1.3-0.4-2.2c0-1.6,0.5-2.8,1.4-3.6c0.9-0.8,2.2-1.2,3.8-1.2h2.3v-1.6c0-0.6-0.2-1.1-0.5-1.5
		c-0.4-0.4-0.9-0.6-1.6-0.6c-0.8,0-1.6,0-2.2,0.1c-0.6,0.1-1.3,0.3-2,0.5v-2.1c0.5-0.2,1.1-0.3,1.8-0.4c0.7-0.1,1.4-0.2,2.1-0.2
		c0.9,0,1.7,0.1,2.4,0.3c0.6,0.2,1.1,0.5,1.5,0.9c0.4,0.4,0.6,0.9,0.8,1.5c0.2,0.6,0.2,1.3,0.2,2.1v7c0,0.3,0.1,0.5,0.3,0.7
		s0.5,0.2,1,0.2v2H119.3z M113.9,28.5c0.5,0,0.9-0.1,1.2-0.2c0.3-0.2,0.6-0.3,0.8-0.6c0.2-0.2,0.3-0.4,0.4-0.7
		c0.1-0.2,0.1-0.4,0.1-0.6v-3H114c-0.3,0-0.6,0-0.9,0.1s-0.6,0.3-0.8,0.5c-0.2,0.2-0.4,0.5-0.6,0.8c-0.1,0.3-0.2,0.7-0.2,1.2
		c0,0.9,0.2,1.5,0.6,1.9C112.5,28.3,113.1,28.5,113.9,28.5z"/>
	<path class="st1" d="M131.7,26.2c0,1.6-0.4,2.7-1.3,3.4c-0.9,0.7-2.1,1-3.6,1c-0.8,0-1.5-0.1-2.1-0.2c-0.6-0.1-1-0.2-1.4-0.3V28
		c0.2,0,0.4,0.1,0.7,0.1c0.3,0,0.6,0.1,0.9,0.1c0.3,0,0.7,0.1,1,0.1c0.4,0,0.7,0.1,1.1,0.1c0.4,0,0.7-0.1,1-0.2
		c0.3-0.1,0.5-0.3,0.6-0.5c0.2-0.2,0.3-0.4,0.4-0.7c0.1-0.3,0.1-0.5,0.1-0.8c0-0.7-0.1-1.2-0.4-1.5s-0.7-0.6-1.5-0.7
		c-1.5-0.3-2.5-0.7-3.1-1.4c-0.6-0.7-0.9-1.5-0.9-2.6c0-0.8,0.1-1.5,0.4-2c0.3-0.6,0.6-1,1-1.3c0.4-0.3,0.9-0.6,1.5-0.8
		c0.6-0.2,1.2-0.2,1.9-0.2c0.8,0,1.4,0.1,1.9,0.2c0.5,0.1,0.9,0.2,1.2,0.3v2.1c-0.5-0.1-1-0.2-1.4-0.3c-0.5-0.1-1.1-0.2-1.9-0.2
		c-0.4,0-0.8,0.1-1.1,0.2c-0.3,0.1-0.5,0.3-0.7,0.5c-0.2,0.2-0.3,0.4-0.3,0.7c0,0.3-0.1,0.5-0.1,0.8c0,1.1,0.6,1.7,1.9,1.9
		c1.5,0.3,2.6,0.7,3.2,1.4C131.4,23.9,131.7,24.9,131.7,26.2z"/>
	<path class="st1" d="M145.7,12.2v6.9h6.3v2.1h-6.3v9.1h-2.5V10.1h9.5v2.1H145.7z"/>
	<path class="st1" d="M156,30.4V15.9h2l0.2,1.5c0.3-0.5,0.7-0.9,1.2-1.2c0.5-0.3,1.1-0.5,1.8-0.5c0.3,0,0.6,0,0.9,0
		c0.3,0,0.5,0.1,0.6,0.1v2.6c-0.3-0.1-0.5-0.1-0.9-0.2c-0.3-0.1-0.6-0.1-0.9-0.1c-0.5,0-0.9,0.1-1.2,0.3c-0.3,0.2-0.6,0.4-0.8,0.8
		s-0.3,0.7-0.4,1.1c-0.1,0.4-0.1,0.8-0.1,1.2v8.9H156z"/>
	<path class="st1" d="M165.7,12.7v-2.6h2.8v2.6H165.7z M165.8,30.4V15.9h2.5v14.5H165.8z"/>
	<path class="st1" d="M174.9,24c0,0.9,0.1,1.7,0.2,2.3c0.1,0.6,0.3,1,0.5,1.4c0.2,0.3,0.5,0.5,0.8,0.7c0.3,0.1,0.6,0.2,1,0.2
		c0.8,0,1.6-0.1,2.2-0.2c0.7-0.1,1.2-0.2,1.7-0.3v2.1c-0.5,0.1-1,0.2-1.8,0.3c-0.7,0.1-1.3,0.1-1.8,0.1c-0.8,0-1.6-0.1-2.2-0.3
		c-0.6-0.2-1.2-0.5-1.6-1c-0.4-0.5-0.8-1.3-1-2.2c-0.2-1-0.3-2.3-0.3-3.9c0-1.3,0.1-2.5,0.3-3.4c0.2-0.9,0.6-1.7,1-2.3
		c0.4-0.6,1-1,1.7-1.3c0.7-0.3,1.4-0.4,2.3-0.4c1.7,0,2.9,0.5,3.6,1.6c0.7,1.1,1.1,2.6,1.1,4.5V24H174.9z M177.7,17.7
		c-0.5,0-0.9,0.1-1.2,0.2c-0.3,0.1-0.6,0.4-0.8,0.7c-0.2,0.3-0.4,0.8-0.5,1.3c-0.1,0.6-0.2,1.2-0.2,2.1h5.1v-0.8
		c0-1.1-0.2-2-0.5-2.6C179.2,18.1,178.6,17.7,177.7,17.7z"/>
	<path class="st1" d="M186.5,30.4V15.9h2l0.2,1.3c0.9-1,2.1-1.5,3.6-1.5c0.8,0,1.5,0.1,2.1,0.3c0.6,0.2,1,0.5,1.4,0.9
		c0.3,0.4,0.6,0.9,0.7,1.6c0.1,0.6,0.2,1.4,0.2,2.3v9.6h-2.5v-9.9c0-0.9-0.2-1.6-0.5-2.1s-0.9-0.7-1.9-0.7c-0.4,0-0.8,0.1-1.1,0.2
		c-0.4,0.2-0.7,0.4-0.9,0.6c-0.3,0.3-0.5,0.5-0.6,0.8c-0.1,0.3-0.2,0.6-0.2,0.8v10.2H186.5z"/>
	<path class="st1" d="M209.1,30.4l-0.2-1.2c-0.4,0.4-0.9,0.8-1.5,1c-0.6,0.3-1.2,0.4-1.9,0.4c-0.9,0-1.7-0.1-2.3-0.4
		c-0.6-0.3-1.1-0.7-1.4-1.3c-0.4-0.6-0.6-1.3-0.8-2.1c-0.1-0.9-0.2-1.9-0.2-3c0-2.9,0.5-4.9,1.5-6.2c1-1.3,2.6-1.9,4.8-1.9
		c0.3,0,0.6,0,0.9,0c0.3,0,0.5,0,0.7,0.1v-5.7h2.5v20.3H209.1z M205.9,28.5c0.4,0,0.8-0.1,1.2-0.2c0.3-0.2,0.6-0.4,0.9-0.6
		c0.2-0.3,0.4-0.5,0.5-0.8c0.1-0.3,0.2-0.6,0.2-0.8v-8.2c-0.2,0-0.5-0.1-0.8-0.1c-0.3,0-0.7,0-1.1,0c-0.7,0-1.3,0.1-1.7,0.4
		c-0.4,0.3-0.8,0.7-1.1,1.2c-0.3,0.5-0.5,1.2-0.6,2c-0.1,0.8-0.2,1.7-0.2,2.7c0,0.9,0.1,1.6,0.2,2.2c0.1,0.6,0.3,1,0.5,1.4
		c0.2,0.3,0.5,0.6,0.8,0.7C205.1,28.4,205.5,28.5,205.9,28.5z"/>
</g>
</svg>
